<svg width="452" height="256" viewBox="0 0 452 256" fill="none" xmlns="http://www.w3.org/2000/svg">
<path d="M445.005 248.251L160.228 249.052L302.015 61.086L445.005 248.251Z" fill="url(#paint0_linear_53_23)"/>
<path d="M445.005 248.251L377.273 248.473L302.015 61.086L445.005 248.251Z" fill="#272932"/>
<path d="M160.227 255.732C157.689 255.732 155.373 254.307 154.26 252.036C153.147 249.765 153.369 247.048 154.884 245.045L296.671 57.078C297.918 55.43 299.877 54.406 301.97 54.406C304.063 54.406 306.023 55.386 307.269 57.034L450.259 244.243C451.818 246.247 452.085 248.963 450.927 251.234C449.814 253.505 447.498 254.975 444.96 254.975L160.227 255.732C160.272 255.732 160.272 255.732 160.227 255.732ZM302.059 72.13L173.676 242.328L431.512 241.616L302.059 72.13Z" fill="#D11149"/>
<path d="M377.273 255.153C374.556 255.153 372.107 253.505 371.083 250.967L295.825 63.58C294.578 60.463 295.825 56.945 298.72 55.297C301.614 53.649 305.31 54.406 307.314 57.034L450.304 244.243C451.863 246.247 452.13 248.963 450.972 251.234C449.859 253.505 447.543 254.975 445.005 254.975L377.273 255.153ZM326.507 104.148L381.771 241.749L431.512 241.616L326.507 104.148Z" fill="#D11149"/>
<path d="M337.106 248.028L7.17334 248.919L171.36 7.42603L337.106 248.028Z" fill="url(#paint1_linear_53_23)"/>
<path d="M337.105 248.028L216.114 248.919L171.36 7.42603L337.105 248.028Z" fill="#272932"/>
<path d="M7.1734 255.598C4.72419 255.598 2.45309 254.218 1.29528 252.036C0.137473 249.854 0.271062 247.182 1.65153 245.134L165.838 3.64098C167.085 1.81478 169.133 0.701477 171.36 0.701477C173.542 0.701477 175.635 1.77028 176.882 3.59598L342.627 244.198C344.052 246.247 344.186 248.874 343.028 251.101C341.87 253.283 339.599 254.663 337.15 254.663L7.1734 255.598ZM171.404 19.271L19.8202 242.195L324.414 241.393L171.404 19.271Z" fill="#4361EE"/>
<path d="M216.114 255.598C212.908 255.598 210.147 253.283 209.568 250.121L164.769 8.62799C164.191 5.51099 165.883 2.4383 168.777 1.2359C171.672 0.0335965 175.056 1.0132 176.837 3.596L342.583 244.198C344.008 246.247 344.141 248.874 343.028 251.056C341.87 253.238 339.644 254.619 337.15 254.663L216.159 255.554C216.159 255.598 216.114 255.598 216.114 255.598ZM183.651 37.039L221.68 242.195L324.459 241.437L183.651 37.039Z" fill="#4361EE"/>
<defs>
<linearGradient id="paint0_linear_53_23" x1="302.616" y1="61.086" x2="302.616" y2="249.052" gradientUnits="userSpaceOnUse">
<stop stop-color="#D11149"/>
<stop offset="1" stop-color="#272932"/>
</linearGradient>
<linearGradient id="paint1_linear_53_23" x1="172.14" y1="7.42603" x2="214.558" y2="248.814" gradientUnits="userSpaceOnUse">
<stop stop-color="#465FE9"/>
<stop offset="1" stop-color="#272932"/>
</linearGradient>
</defs>
</svg>
