<svg width="116" height="116" viewBox="0 0 116 116" fill="none" xmlns="http://www.w3.org/2000/svg">
<g filter="url(#filter0_b_44_129)">
<circle cx="58" cy="58" r="58" fill="#272932" fill-opacity="0.21"/>
</g>
<path d="M111.433 35.4405C107.021 25.0309 99.6657 16.1797 90.4109 9.92117C81.1585 3.66261 69.9836 -0.00158542 58 5.14607e-07C50.0128 -0.00045261 42.3794 1.62672 35.4409 4.56705C25.0315 8.97867 16.1802 16.3336 9.9214 25.5886C3.66284 34.8408 -0.00158542 46.0158 5.14576e-07 58C-0.00045261 65.9875 1.62695 73.621 4.56727 80.5595C8.97867 90.9691 16.3343 99.8203 25.5891 106.079C34.8415 112.337 46.0164 116.002 58 116C65.987 116 73.6206 114.373 80.5591 111.433C90.9685 107.022 99.8198 99.6664 106.079 90.4114C112.337 81.1592 116.002 69.9838 116 58C116 50.0125 114.373 42.379 111.433 35.4405ZM104.312 77.5431C100.495 86.5559 94.1068 94.2459 86.0795 99.6728C78.0494 105.1 68.4031 108.265 58.0002 108.267C51.0631 108.267 44.4679 106.858 38.4581 104.313C29.4452 100.495 21.755 94.1073 16.3281 86.0799C10.9008 78.0496 7.73484 68.4031 7.73326 58C7.73371 51.0627 9.14225 44.4672 11.6877 38.4574C15.5055 29.4445 21.8932 21.7543 29.9205 16.3277C37.9506 10.9006 47.5972 7.73484 58 7.73326C64.9371 7.73371 71.5324 9.14202 77.5421 11.6877C86.555 15.5053 94.2452 21.893 99.6721 29.9203C105.099 37.9504 108.265 47.5967 108.267 58.0002C108.266 64.9376 106.858 71.533 104.312 77.5431Z" fill="#4361EE"/>
<path d="M98.1263 50.639C96.6855 47.2407 94.2912 44.3605 91.275 42.3203C89.7668 41.3003 88.1006 40.4905 86.3215 39.9359C84.5425 39.3813 82.6498 39.0829 80.7 39.0831C77.8992 39.0806 75.2543 39.6751 72.8405 40.6654C70.7249 41.5316 68.7774 42.6909 66.9565 44.0181C63.7712 46.3445 60.9523 49.1822 58.2606 52.0849C58.1731 52.1794 58.0875 52.2745 58.0002 52.3694C57.9814 52.3488 57.9626 52.328 57.9438 52.3074C56.4347 50.6718 54.8839 49.056 53.2547 47.5346C50.81 45.2554 48.188 43.1771 45.2219 41.6261C43.7397 40.8521 42.1703 40.2146 40.5114 39.7717C38.8534 39.3285 37.1069 39.0829 35.2989 39.0834C32.6989 39.0829 30.2021 39.6142 27.9377 40.5744C24.5394 42.0151 21.6592 44.4094 19.619 47.4256C18.599 48.9338 17.7892 50.6 17.2346 52.3792C16.68 54.1582 16.3816 56.0509 16.3818 58.0007C16.3814 60.6007 16.9127 63.0974 17.8728 65.3619C19.3136 68.7597 21.7081 71.6399 24.7241 73.6801C26.2323 74.7001 27.8985 75.5099 29.6777 76.0645C31.4566 76.6191 33.3493 76.9175 35.2991 76.9173C38.0999 76.9195 40.7448 76.3253 43.1586 75.335C45.2742 74.4688 47.2218 73.3095 49.0426 71.9823C52.2279 69.6559 55.0468 66.8182 57.7386 63.9155C57.826 63.821 57.9117 63.7259 57.9989 63.6312C58.0177 63.6518 58.0365 63.6726 58.0553 63.6933C59.5644 65.3288 61.1152 66.9447 62.7445 68.466C65.1891 70.7453 67.8111 72.8235 70.7772 74.3746C72.2594 75.148 73.8288 75.786 75.4877 76.229C77.1457 76.6721 78.8922 76.9177 80.7002 76.9173C83.3002 76.9177 85.797 76.3862 88.0615 75.4263C91.4597 73.9855 94.34 71.5912 96.3802 68.575C97.4001 67.0668 98.2099 65.4006 98.7645 63.6214C99.3191 61.8425 99.6175 59.9498 99.6173 58.0002C99.6177 55.4002 99.0864 52.9034 98.1263 50.639ZM52.3828 58.5625C50.943 60.1233 49.5157 61.6059 48.0915 62.935C45.9559 64.9317 43.8283 66.5699 41.7213 67.6665C40.6668 68.2166 39.6188 68.6355 38.5598 68.9183C37.5 69.2008 36.4288 69.3498 35.2994 69.3503C33.7268 69.3498 32.2455 69.0324 30.89 68.459C28.8582 67.5992 27.1143 66.1519 25.8877 64.3367C25.2742 63.4293 24.79 62.4322 24.459 61.3701C24.128 60.3075 23.949 59.1801 23.949 58.0004C23.9495 56.4279 24.2669 54.9466 24.8403 53.5913C25.7001 51.5597 27.1474 49.8156 28.9629 48.589C29.87 47.9755 30.8673 47.4913 31.9299 47.1603C32.9925 46.8293 34.1199 46.6503 35.2996 46.6503C37.0459 46.6526 38.6618 47.0042 40.2939 47.6692C41.7183 48.2512 43.1468 49.0834 44.5852 50.1326C47.1037 51.9646 49.6319 54.4631 52.1871 57.2265C52.4225 57.4807 52.6595 57.7426 52.8956 58.0009C52.725 58.1871 52.5534 58.3779 52.3828 58.5625ZM91.1595 62.4098C90.2997 64.4416 88.8524 66.1855 87.0369 67.4121C86.1298 68.0256 85.1325 68.5098 84.0699 68.8408C83.0073 69.1718 81.8799 69.3508 80.7002 69.3508C78.9539 69.3485 77.338 68.9969 75.7059 68.3319C74.2815 67.7499 72.853 66.9177 71.4145 65.8685C68.8961 64.0365 66.3679 61.538 63.8127 58.7746C63.5773 58.5204 63.3403 58.2583 63.1042 58.0002C63.2751 57.8133 63.4466 57.6225 63.6169 57.4381C65.0568 55.8773 66.4841 54.3947 67.9083 53.0657C70.0438 51.069 72.1715 49.4307 74.2785 48.3341C75.333 47.784 76.381 47.3651 77.44 47.0824C78.4998 46.7999 79.571 46.6508 80.7004 46.6503C82.273 46.6508 83.7543 46.9682 85.1098 47.5416C87.1416 48.4014 88.8855 49.8487 90.1121 51.6642C90.7256 52.5715 91.2098 53.5686 91.5408 54.6308C91.8718 55.6933 92.0508 56.8207 92.0508 58.0004C92.0505 59.5728 91.7331 61.054 91.1595 62.4098Z" fill="#684BC2"/>
<defs>
<filter id="filter0_b_44_129" x="-50" y="-50" width="216" height="216" filterUnits="userSpaceOnUse" color-interpolation-filters="sRGB">
<feFlood flood-opacity="0" result="BackgroundImageFix"/>
<feGaussianBlur in="BackgroundImageFix" stdDeviation="25"/>
<feComposite in2="SourceAlpha" operator="in" result="effect1_backgroundBlur_44_129"/>
<feBlend mode="normal" in="SourceGraphic" in2="effect1_backgroundBlur_44_129" result="shape"/>
</filter>
</defs>
</svg>
