<svg width="148" height="148" viewBox="0 0 148 148" fill="none" xmlns="http://www.w3.org/2000/svg">
<g filter="url(#filter0_b_42_120)">
<circle cx="74" cy="74" r="74" fill="white"/>
</g>
<path d="M142.173 45.2172C136.544 31.9359 127.16 20.6431 115.352 12.658C103.547 4.67299 89.2894 -0.00202278 74 6.56568e-07C63.8094 -0.000577468 54.0703 2.07547 45.2178 5.82692C31.9368 11.4555 20.6437 20.8394 12.6583 32.6476C4.67327 44.452 -0.00202278 58.7098 6.56527e-07 74C-0.000577468 84.1909 2.07576 93.9303 5.82721 102.783C11.4555 116.064 20.8403 127.357 32.6482 135.342C44.4529 143.327 58.7106 148.002 74 148C84.1903 148.001 93.9297 145.925 102.782 142.173C116.063 136.545 127.356 127.161 135.342 115.352C143.327 103.548 148.002 89.2897 148 74C148.001 63.8091 145.924 54.0697 142.173 45.2172ZM133.088 98.9342C128.217 110.433 120.067 120.245 109.826 127.169C99.5803 134.093 87.2729 138.132 74.0003 138.134C65.1495 138.133 56.7349 136.336 49.0672 133.088C37.568 128.217 27.7564 120.068 20.8324 109.826C13.908 99.5806 9.86859 87.2729 9.86657 74C9.86715 65.1489 11.6643 56.734 14.9119 49.0663C19.7829 37.5671 27.9327 27.7555 38.1745 20.8319C48.4197 13.9077 60.7274 9.86859 74 9.86657C82.8508 9.86715 91.2654 11.664 98.9331 14.9119C110.432 19.7826 120.244 27.9324 127.168 38.1742C134.092 48.4194 138.131 60.7268 138.133 74.0003C138.133 82.8514 136.336 91.2663 133.088 98.9342Z" fill="#4361EE"/>
<path d="M125.196 64.6084C123.358 60.2727 120.303 56.5979 116.455 53.9949C114.53 52.6935 112.405 51.6604 110.135 50.9528C107.865 50.2451 105.45 49.8644 102.962 49.8647C99.3891 49.8616 96.0145 50.6201 92.9349 51.8835C90.2356 52.9886 87.7508 54.4678 85.4276 56.1611C81.3637 59.1292 77.7672 62.7497 74.3328 66.4532C74.2213 66.5737 74.112 66.6951 74.0007 66.8162C73.9767 66.7899 73.9527 66.7633 73.9287 66.737C72.0033 64.6503 70.0247 62.5887 67.946 60.6476C64.827 57.7397 61.4817 55.0881 57.6973 53.1092C55.8062 52.1217 53.8039 51.3083 51.6874 50.7432C49.572 50.1778 47.3436 49.8644 45.0369 49.865C41.7196 49.8644 38.5342 50.5423 35.645 51.7673C31.3094 53.6055 27.6345 56.6603 25.0315 60.5086C23.7301 62.4329 22.697 64.5586 21.9894 66.8287C21.2818 69.0984 20.9011 71.5132 20.9014 74.0009C20.9008 77.3182 21.5786 80.5036 22.8037 83.3928C24.6418 87.7279 27.6969 91.4027 31.5449 94.0057C33.4692 95.3071 35.595 96.3402 37.865 97.0478C40.1347 97.7555 42.5495 98.1362 45.0372 98.1359C48.6106 98.1388 51.9851 97.3805 55.0648 96.117C57.7641 95.012 60.2488 93.5328 62.572 91.8395C66.636 88.8714 70.2325 85.2509 73.6668 81.5474C73.7784 81.4269 73.8877 81.3055 73.999 81.1847C74.023 81.211 74.047 81.2376 74.0709 81.2639C75.9964 83.3506 77.975 85.4122 80.0537 87.3533C83.1727 90.2612 86.518 92.9128 90.3024 94.8917C92.1934 95.8786 94.1958 96.6926 96.3123 97.2577C98.4276 97.8231 100.656 98.1364 102.963 98.1359C106.28 98.1364 109.465 97.4583 112.355 96.2335C116.69 94.3954 120.365 91.3406 122.968 87.4923C124.27 85.568 125.303 83.4422 126.01 81.1722C126.718 78.9025 127.099 76.4877 127.098 74.0003C127.099 70.683 126.421 67.4975 125.196 64.6084ZM66.8337 74.7178C64.9967 76.7091 63.1756 78.6007 61.3586 80.2964C58.6339 82.8439 55.9193 84.9341 53.231 86.3331C51.8857 87.035 50.5485 87.5695 49.1974 87.9302C47.8452 88.2907 46.4785 88.4809 45.0375 88.4815C43.0311 88.4809 41.1412 88.0759 39.4118 87.3443C36.8195 86.2473 34.5945 84.4008 33.0296 82.0848C32.2468 80.9271 31.6291 79.6549 31.2067 78.2998C30.7844 76.9441 30.5561 75.5057 30.5561 74.0006C30.5566 71.9942 30.9616 70.1043 31.6932 68.3751C32.7902 65.7831 34.6367 63.5579 36.953 61.9929C38.1104 61.2101 39.3829 60.5924 40.7386 60.1701C42.0943 59.7478 43.5326 59.5194 45.0378 59.5194C47.2659 59.5223 49.3275 59.9709 51.4099 60.8193C53.2272 61.5619 55.0498 62.6237 56.885 63.9623C60.0982 66.2997 63.3239 69.4875 66.5839 73.0131C66.8843 73.3375 67.1866 73.6716 67.4878 74.0012C67.2702 74.2388 67.0514 74.4822 66.8337 74.7178ZM116.307 79.6263C115.21 82.2186 113.364 84.4435 111.048 86.0085C109.89 86.7913 108.618 87.409 107.262 87.8314C105.906 88.2537 104.468 88.482 102.963 88.482C100.735 88.4792 98.6731 88.0305 96.5906 87.1821C94.7733 86.4395 92.9508 85.3778 91.1155 84.0392C87.9023 81.7018 84.6767 78.514 81.4166 74.9883C81.1163 74.664 80.8139 74.3295 80.5127 74.0003C80.7307 73.7618 80.9495 73.5184 81.1669 73.2831C83.0038 71.2918 84.8249 69.4002 86.642 67.7045C89.3667 65.157 92.0813 63.0668 94.7696 61.6677C96.1149 60.9659 97.4521 60.4314 98.8031 60.0707C100.155 59.7102 101.522 59.52 102.963 59.5194C104.969 59.52 106.859 59.925 108.589 60.6566C111.181 61.7536 113.406 63.6001 114.971 65.9164C115.754 67.0741 116.371 68.3462 116.794 69.7014C117.216 71.0571 117.444 72.4954 117.444 74.0006C117.444 76.0067 117.039 77.8966 116.307 79.6263Z" fill="#684BC2"/>
<defs>
<filter id="filter0_b_42_120" x="-50" y="-50" width="248" height="248" filterUnits="userSpaceOnUse" color-interpolation-filters="sRGB">
<feFlood flood-opacity="0" result="BackgroundImageFix"/>
<feGaussianBlur in="BackgroundImageFix" stdDeviation="25"/>
<feComposite in2="SourceAlpha" operator="in" result="effect1_backgroundBlur_42_120"/>
<feBlend mode="normal" in="SourceGraphic" in2="effect1_backgroundBlur_42_120" result="shape"/>
</filter>
</defs>
</svg>
